<?xml version="1.0" encoding="utf-8"?>
<!-- Generator: Adobe Illustrator 24.2.1, SVG Export Plug-In . SVG Version: 6.00 Build 0)  -->
<svg version="1.1" id="Capa_1" xmlns="http://www.w3.org/2000/svg" xmlns:xlink="http://www.w3.org/1999/xlink" x="0px" y="0px"
	 viewBox="0 0 512 512" style="enable-background:new 0 0 512 512;" xml:space="preserve">
<style type="text/css">
	.st0{fill:#42E8E0;}
</style>
<g>
	<path class="st0" d="M127.7,209H96c-4,0-7.8,1.6-10.6,4.4S81,220.1,81,224L81.2,338c0,8.3,6.7,15,15,15s15-6.7,15-15v-34.6
		c6.1,0,12.7-0.1,16.5-0.1c26.4,0,47.8-21.2,47.8-47.2S154.1,209,127.7,209L127.7,209z M127.7,273.3c-3.9,0-10.4,0-16.6,0.1
		c0-6.4-0.1-13.3-0.1-17.2c0-3.4,0-10.5,0-17.2h16.7c9.6,0,17.8,7.9,17.8,17.2S137.4,273.3,127.7,273.3z"/>
	<path class="st0" d="M255.3,209H224c-4,0-7.8,1.6-10.6,4.4S209,220,209,224c0,0,0.2,110.2,0.2,110.6c0,4,1.6,7.8,4.4,10.6
		c2.8,2.8,6.6,4.4,10.6,4.4h0.1c0.9,0,23.3-0.1,32.2-0.2c33.9-0.6,58.5-30.1,58.5-70.1C315,237.3,291,209,255.3,209L255.3,209z
		 M256,319.4c-3.9,0.1-10.6,0.1-16.8,0.2c0-13-0.1-67-0.1-80.5h16.3c27.5,0,29.7,30.9,29.7,40.3C285,299,276,319,256,319.4
		L256,319.4z"/>
	<path class="st0" d="M413.9,237.8c8.3,0,15-6.7,15-15s-6.7-15-15-15H368c-8.3,0-15,6.7-15,15V336c0,8.3,6.7,15,15,15s15-6.7,15-15
		v-42.6h27.2c8.3,0,15-6.7,15-15s-6.7-15-15-15H383v-25.5L413.9,237.8z"/>
	<path class="st0" d="M458,145h-11v-4.3c0-19.3-7.3-37.6-20.6-51.6l-62.3-65.7C350,8.5,330.2,0,309.7,0H110C85.2,0,65,20.2,65,45
		v100H54c-24.8,0-45,20.2-45,45v180c0,24.8,20.2,45,45,45h11v52c0,24.8,20.2,45,45,45h292c24.8,0,45-20.2,45-45v-52h11
		c24.8,0,45-20.2,45-45V190C503,165.2,482.8,145,458,145z M95,45c0-8.3,6.7-15,15-15h199.7c12.3,0,24.2,5.1,32.7,14l62.3,65.7
		c8,8.4,12.3,19.4,12.3,31v4.3H95V45z M417,467c0,8.3-6.7,15-15,15H110c-8.3,0-15-6.7-15-15v-52h322V467z M473,370
		c0,8.3-6.7,15-15,15H54c-8.3,0-15-6.7-15-15V190c0-8.3,6.7-15,15-15h404c8.3,0,15,6.7,15,15V370z"/>
</g>
</svg>
