<svg id="Camada_1" data-name="Camada 1" xmlns="http://www.w3.org/2000/svg" viewBox="0 0 193 118"><defs><style>.cls-1{font-size:10px;font-family:Raleway-Light, Raleway;font-weight:300;}.cls-2{letter-spacing:-0.02em;}.cls-3{letter-spacing:-0.02em;}.cls-4{letter-spacing:-0.02em;}.cls-5{letter-spacing:0em;}.cls-6{letter-spacing:-0.01em;}.cls-7{letter-spacing:-0.03em;}.cls-8{fill:#24126a;}.cls-9{fill:none;stroke:#24126a;stroke-miterlimit:10;stroke-width:2px;}.cls-10{fill:#42e8e0;}</style></defs><text class="cls-1" transform="translate(0.8 36.59)">P<tspan class="cls-2" x="6.21" y="0">r</tspan><tspan x="9.42" y="0">oblema</tspan></text><text class="cls-1" transform="translate(63.63 10.59)"><tspan class="cls-3">E</tspan><tspan class="cls-4" x="5.88" y="0">v</tspan><tspan x="10.98" y="0">e</tspan><tspan class="cls-5" x="16.81" y="0">n</tspan><tspan class="cls-6" x="22.52" y="0">t</tspan><tspan x="25.62" y="0">o B</tspan></text><text class="cls-1" transform="translate(37.88 114.59)"><tspan class="cls-3">E</tspan><tspan class="cls-4" x="5.88" y="0">v</tspan><tspan x="10.98" y="0">e</tspan><tspan class="cls-5" x="16.81" y="0">n</tspan><tspan class="cls-6" x="22.52" y="0">t</tspan><tspan x="25.62" y="0">o</tspan><tspan class="cls-7" x="31.54" y="0" xml:space="preserve"> A</tspan></text><text class="cls-1" transform="translate(102.49 86.59)"><tspan class="cls-3">E</tspan><tspan class="cls-4" x="5.88" y="0">v</tspan><tspan x="10.98" y="0">e</tspan><tspan class="cls-5" x="16.81" y="0">n</tspan><tspan class="cls-6" x="22.52" y="0">t</tspan><tspan x="25.62" y="0">o C</tspan></text><text class="cls-1" transform="translate(163.85 86.59)">Causa</text><path class="cls-8" d="M80.16,19.85,74.87,29A4.8,4.8,0,0,0,79,36.22H89.61A4.81,4.81,0,0,0,93.78,29l-5.3-9.16A4.8,4.8,0,0,0,80.16,19.85Z"/><polyline class="cls-9" points="58.39 87.8 23.34 57.24 84.32 29.7 123 57"/><circle class="cls-8" cx="23.34" cy="54.54" r="13.48"/><rect class="cls-8" x="45.81" y="75.21" width="25.17" height="25.17" rx="6.93"/><path class="cls-8" d="M117.44,45.52,113,48.74a9.63,9.63,0,0,0-3.51,10.77l1.69,5.2a9.64,9.64,0,0,0,9.17,6.66h5.47A9.64,9.64,0,0,0,135,64.71l1.69-5.2a9.63,9.63,0,0,0-3.5-10.77l-4.42-3.22A9.65,9.65,0,0,0,117.44,45.52Z"/><polyline class="cls-9" points="84.32 23.98 58.39 87.8 123 57.24 173 57.24"/><circle class="cls-10" cx="177.53" cy="57.48" r="13.48"/></svg>