<svg id="Camada_1" data-name="Camada 1" xmlns="http://www.w3.org/2000/svg" viewBox="0 0 194 110"><defs><style>.cls-1{font-size:10px;font-family:Raleway-Light, Raleway;font-weight:300;}.cls-2{letter-spacing:-0.02em;}.cls-3{letter-spacing:-0.02em;}.cls-4{letter-spacing:-0.02em;}.cls-5{letter-spacing:0em;}.cls-6{letter-spacing:-0.01em;}.cls-7{letter-spacing:-0.03em;}.cls-8{fill:none;stroke:#24126a;stroke-miterlimit:10;stroke-width:2px;}.cls-9{fill:#24126a;}.cls-10{fill:#42e8e0;}</style></defs><text class="cls-1" transform="translate(0.44 32.59)">P<tspan class="cls-2" x="6.21" y="0">r</tspan><tspan x="9.42" y="0">oblema</tspan></text><text class="cls-1" transform="translate(64.63 9.59)"><tspan class="cls-3">E</tspan><tspan class="cls-4" x="5.88" y="0">v</tspan><tspan x="10.98" y="0">e</tspan><tspan class="cls-5" x="16.81" y="0">n</tspan><tspan class="cls-6" x="22.52" y="0">t</tspan><tspan x="25.62" y="0">o B</tspan></text><text class="cls-1" transform="translate(38.88 106.59)"><tspan class="cls-3">E</tspan><tspan class="cls-4" x="5.88" y="0">v</tspan><tspan x="10.98" y="0">e</tspan><tspan class="cls-5" x="16.81" y="0">n</tspan><tspan class="cls-6" x="22.52" y="0">t</tspan><tspan x="25.62" y="0">o</tspan><tspan class="cls-7" x="31.54" y="0" xml:space="preserve"> A</tspan></text><text class="cls-1" transform="translate(103.49 78.59)"><tspan class="cls-3">E</tspan><tspan class="cls-4" x="5.88" y="0">v</tspan><tspan x="10.98" y="0">e</tspan><tspan class="cls-5" x="16.81" y="0">n</tspan><tspan class="cls-6" x="22.52" y="0">t</tspan><tspan x="25.62" y="0">o C</tspan></text><text class="cls-1" transform="translate(164.35 78.59)">Causa</text><polyline class="cls-8" points="59.39 83.8 24.34 53.24 85.32 25.7 124 53"/><path class="cls-9" d="M81.16,15.85,75.87,25A4.8,4.8,0,0,0,80,32.22H90.61A4.81,4.81,0,0,0,94.78,25l-5.3-9.16A4.8,4.8,0,0,0,81.16,15.85Z"/><circle class="cls-9" cx="24.34" cy="50.54" r="13.48"/><path class="cls-9" d="M118.44,41.52,114,44.74a9.63,9.63,0,0,0-3.51,10.77l1.69,5.2a9.64,9.64,0,0,0,9.17,6.66h5.47A9.64,9.64,0,0,0,136,60.71l1.69-5.2a9.63,9.63,0,0,0-3.5-10.77l-4.42-3.22A9.65,9.65,0,0,0,118.44,41.52Z"/><polyline class="cls-8" points="85.32 19.98 59.39 83.8 124 53.24 174 53.24"/><circle class="cls-9" cx="178.53" cy="53.48" r="13.48"/><rect class="cls-10" x="46.81" y="71.21" width="25.17" height="25.17" rx="6.93"/></svg>